<?xml version="1.0" encoding="utf-8"?>
<!-- Generator: Adobe Illustrator 26.3.1, SVG Export Plug-In . SVG Version: 6.00 Build 0)  -->
<svg version="1.1" id="Слой_1" xmlns="http://www.w3.org/2000/svg" xmlns:xlink="http://www.w3.org/1999/xlink" x="0px" y="0px"
	 width="500px" height="292.3px" viewBox="0 0 500 292.3" style="enable-background:new 0 0 500 292.3;" xml:space="preserve">
<g>
	<path d="M313,79.9v116.7h-13.1v-93.7l-43.3,93.7h-12.8l-0.4-1l-42.8-92.8v93.7h-13.1V79.9h16.7l0.4,1l45.6,98.6l46-99.6
		C296.2,79.9,313,79.9,313,79.9z M170.1,136.8l-0.1,59.8H157l-0.3-13.7c-5.4,4.3-11.3,7.8-17.7,10.5c-7,2.9-19.7,5.9-32.3,5.9
		c-11,0-20.3-2.3-26.9-6.5c-8.2-5.4-12.4-13.6-12.4-24.2c0-10,3.6-18.6,10.6-25.1c14.4-13.4,38.7-14.7,48.5-14.6
		c1.1,0,24-0.2,30.4-0.3c-0.1-4-0.2-7-0.3-9.9c-1.2-19.6-13.4-28.6-38.4-28.6c-26.4,0-32.8,17.6-33.8,21.1l-0.7,2.3H70.3l0.9-3.9
		c0.8-3.3,8.7-32.3,46.9-32.3c40.6,0,50.4,22.2,51.4,40.8C169.8,122.5,170.1,136.2,170.1,136.8 M129,141.7h-2.6
		c-8.2,0-28.7,1.1-39.4,11c-4.4,4.1-6.5,9.2-6.5,15.8c0,6.2,2.2,10.6,6.6,13.6c11.8,7.6,36.8,3.8,46.9-0.4
		c8.7-3.8,16.5-9.4,22.9-16.5c0.1-8.7,0.2-16.8,0.1-23.8L129,141.7z M417.5,167.7c-8.2,11.8-20.9,18.8-34.5,18.8
		c-24.1,0-43.7-21.6-43.7-48.2s19.6-48.2,43.7-48.2c13.7,0,26.3,6.9,34.5,18.8h15.1c-10-19.6-28.8-31.6-49.6-31.6
		c-31.2,0-56.7,27.4-56.7,61s25.5,61,56.7,61c20.8,0,39.7-12,49.6-31.6H417.5z"/>
	<g>
		<polygon points="97.5,282 72.7,244.9 67.9,244.9 67.9,291.4 73.1,291.4 73.1,254.3 97.8,291.4 102.6,291.4 102.6,244.9 
			97.5,244.9 		"/>
		<polygon points="118,270 141.8,270 141.8,265.1 118,265.1 118,249.9 143.4,249.9 143.4,244.9 112.7,244.9 112.7,291.4 
			144.7,291.4 144.7,286.5 118,286.5 		"/>
		<polygon points="148.3,249.9 163.6,249.9 163.6,291.4 168.8,291.4 168.8,249.9 185,249.9 183.3,244.9 148.3,244.9 		"/>
		<polygon points="248.3,244.9 236,282.8 223.4,245.1 223.4,244.9 218.8,244.9 206.6,282.8 194,244.9 188.3,244.9 204.1,291.2 
			204.2,291.4 209,291.4 221.1,253.8 233.5,291.2 233.6,291.4 238.4,291.4 253.8,244.9 		"/>
		<path d="M279.7,244c-11.9,0-24.2,9.1-24.2,24.3c0,15.1,12.3,24,24.2,24c11.9,0,24.1-9,24.1-24C303.7,252.4,291.6,244,279.7,244
			 M279.7,287.2c-10.9,0-18.8-7.9-18.8-18.9c0-11.1,7.9-19.2,18.8-19.2s18.7,8,18.7,19.2C298.4,279.2,290.5,287.2,279.7,287.2"/>
		<path d="M346.3,259.8c0-11-10-14.9-18.5-14.9h-16v46.5h5.2v-16.8h10.8h1.4l12,16.8h6.4l-12.7-17.6
			C342,271.8,346.3,266.6,346.3,259.8 M317,249.9h10.6c8.5,0,13.3,3.6,13.3,9.9c0,6.3-4.9,9.8-13.3,9.8H317
			C317,269.6,317,249.9,317,249.9z"/>
		<polygon points="392.7,244.9 385.5,244.9 360.1,270.6 360.1,244.9 354.9,244.9 354.9,291.4 360.1,291.4 360.1,277.5 367.4,270.1 
			385.3,291.3 385.4,291.4 392.4,291.4 371.2,266.5 		"/>
		<path d="M414.3,265.2c-7.3-1.6-13.7-2.9-13.7-8.4c0-5,4.1-7.6,12.1-7.6c7.2,0,11.5,3.1,12.7,9.1l0,0.2h5.3l0-0.4
			c-1.1-8.6-8.1-14.2-18-14.2c-10.6,0-17.5,5-17.5,12.7c0,9.8,9.5,11.8,17.9,13.6c7.2,1.5,13.4,2.8,13.4,8.2c0,7.6-8.1,8.7-13,8.7
			c-8.1,0-13.1-3.7-14.1-10.3l0-0.2h-5.3l0,0.3c1,9.6,8.2,15.4,19.4,15.4c11.5,0,18.3-5.2,18.3-13.9
			C431.9,268.9,422.5,266.9,414.3,265.2"/>
	</g>
	<path d="M0,0v277.3h47v-12.9H12.9V12.9h474.2v251.4h-34v12.9H500V0H0z"/>
</g>
</svg>
